# xmcd CD database file
#
# Track frame offsets:
#	150
#	23346
#	41711
#	63312
#	82680
#	100025
#	122528
#	139758
#	157514
#	176969
#	192367
#	215362
#
# Disc length: 3200 seconds
#
# Revision: 0
# Processed by: cddbd v1.5.1PL0 Copyright (c) Steve Scherf et al.
# Submitted via: CDex 1.51
#
DISCID=8d0c7e0c
DTITLE=スキマスイッチ - 夏雲ノイズ
DYEAR=1900
DGENRE=JPop
TTITLE0=螺旋
TTITLE1=ふれて未来を
TTITLE2=桜夜風
TTITLE3=view
TTITLE4=きみがいいなら
TTITLE5=ドーシタ　トーシタ
TTITLE6=君の話
TTITLE7=僕の話
TTITLE8=種を蒔く人
TTITLE9=キミドリ色の世界
TTITLE10=えんぴつケシゴム
TTITLE11=奏
EXTD=
EXTT0=
EXTT1=
EXTT2=
EXTT3=
EXTT4=
EXTT5=
EXTT6=
EXTT7=
EXTT8=
EXTT9=
EXTT10=
EXTT11=
PLAYORDER=
